# Blender 3.6.1
# www.blender.org
mtllib Bush01.mtl
o ST_TallBush
v -0.029733 -0.000038 0.008647
v -0.018854 0.702647 0.007875
v -0.421204 0.326266 -0.230995
v 0.361941 0.305856 0.241810
v -0.412444 0.717150 -0.229790
v 0.370732 0.698141 0.243020
v -0.059415 -0.000109 0.050276
v 0.176833 0.335501 0.419285
v -0.145514 0.682931 0.070377
v -0.366448 0.279250 -0.291954
v 0.127051 0.715332 0.428010
v -0.416407 0.660442 -0.283198
v -0.022327 0.000312 0.054447
v 0.447473 0.192385 0.061087
v 0.122270 0.603610 -0.073402
v -0.352302 0.348891 -0.065621
v 0.525158 0.528585 -0.010483
v -0.274338 0.686296 -0.137447
v 0.014367 0.000020 0.104134
v -0.000953 0.658836 0.003447
v -0.431685 0.291896 0.069089
v 0.436026 0.300534 0.048876
v -0.437209 0.658473 0.013000
v 0.430482 0.668425 -0.007414
v 0.097283 -0.000098 0.138879
v 0.116601 0.610740 0.234456
v -0.296857 0.300186 0.124983
v 0.499059 0.249585 0.237357
v -0.283358 0.639865 0.178548
v 0.512607 0.590481 0.291114
v 0.150577 -0.000010 0.077253
v 0.057493 0.600974 0.027235
v -0.085178 0.273447 0.407022
v 0.297931 0.267096 -0.288985
v -0.135643 0.607796 0.376787
v 0.247285 0.602644 -0.319328
v 0.010136 -0.000164 0.001635
v -0.152206 0.357222 -0.404668
v 0.089869 0.699821 0.027670
v 0.239393 0.273001 0.421250
v -0.106491 0.746383 -0.387328
v 0.285272 0.663558 0.438652
v 0.095384 -0.000220 -0.051401
v 0.146216 0.618147 -0.121124
v 0.018084 0.334608 0.312251
v 0.215978 0.222443 -0.468210
v 0.047050 0.678263 0.270761
v 0.245048 0.567329 -0.509848
v 0.089456 -0.000184 -0.132216
v 0.030245 0.644887 -0.187218
v 0.484655 0.337669 -0.099341
v -0.348797 0.243253 -0.213163
v 0.448830 0.696243 -0.130336
v -0.384750 0.603112 -0.244269
v 0.015173 -0.000094 -0.139462
v -0.023284 0.656467 0.035880
v 0.445189 0.319896 -0.038453
v -0.438617 0.270982 -0.082245
v 0.420737 0.685020 0.058952
v -0.463157 0.637415 0.015509
v -0.015071 0.000166 -0.035159
v 0.053701 0.636392 -0.046445
v 0.425702 0.244433 -0.130587
v -0.384088 0.327068 0.047935
v 0.461166 0.598698 -0.136249
v -0.348498 0.682602 0.042252
v -0.101429 0.000192 -0.091917
v -0.548787 0.234374 0.044516
v -0.239688 0.628822 -0.200308
v 0.212278 0.330186 -0.321354
v -0.623079 0.584458 -0.017055
v 0.137719 0.681524 -0.383145
v -0.032898 -0.000221 -0.009908
v -0.034029 0.364662 0.408122
v 0.040525 0.684290 -0.084173
v 0.033440 0.251880 -0.483815
v 0.007054 0.745115 0.363719
v 0.074670 0.633696 -0.528377
v -0.044261 -0.000050 0.014723
v -0.029968 0.924746 0.013055
v -0.577485 0.429496 -0.269003
v 0.488773 0.402436 0.290109
v -0.565847 0.943934 -0.267999
v 0.500453 0.918718 0.291117
v -0.078201 -0.000142 0.086692
v 0.292260 0.441884 0.530178
v -0.187007 0.900272 0.127669
v -0.536378 0.368503 -0.309667
v 0.228859 0.942596 0.550073
v -0.600007 0.871010 -0.289701
v -0.014633 0.000439 0.087088
v 0.601136 0.254379 -0.069462
v 0.135273 0.812672 -0.129367
v -0.482332 0.474278 0.047541
v 0.680793 0.707044 -0.189487
v -0.402389 0.928566 -0.072914
v 0.067544 0.000025 0.142439
v 0.007761 0.873678 0.021345
v -0.509830 0.387290 0.278517
v 0.577847 0.398331 -0.097937
v -0.539331 0.873404 0.209842
v 0.548240 0.886188 -0.166859
v 0.214591 -0.000088 0.135837
v 0.290342 0.819868 0.253467
v -0.259976 0.391833 0.391757
v 0.744990 0.345967 -0.009387
v -0.214356 0.847876 0.455816
v 0.790773 0.803644 0.054902
v 0.253863 -0.000010 -0.002121
v 0.111293 0.810943 -0.003517
v 0.173479 0.368022 0.539595
v 0.205636 0.361358 -0.531984
v 0.094268 0.819191 0.535114
v 0.126141 0.814144 -0.536481
v 0.013576 -0.000178 -0.005983
v -0.391193 0.461204 -0.426758
v 0.116574 0.922456 -0.027942
v 0.500071 0.369320 0.385111
v -0.330806 0.974215 -0.436168
v 0.560675 0.884170 0.375667
v 0.065521 -0.000251 -0.148075
v 0.053418 0.834614 -0.253573
v 0.399399 0.440277 0.238300
v -0.271039 0.311617 -0.618843
v 0.390347 0.904329 0.176641
v -0.280123 0.777332 -0.680723
v -0.036209 -0.000256 -0.237119
v -0.147199 0.856333 -0.252047
v 0.417866 0.451284 -0.500106
v -0.577918 0.320167 0.006249
v 0.352671 0.927413 -0.506661
v -0.643346 0.798004 -0.000330
v -0.139878 0.000023 -0.157948
v -0.005312 0.865444 0.029852
v 0.423041 0.384160 -0.383302
v -0.569633 0.394068 0.228812
v 0.494478 0.865691 -0.276699
v -0.497940 0.877325 0.335797
v -0.054934 0.000202 -0.013855
v -0.039499 0.857767 -0.097714
v 0.021466 0.335168 -0.612925
v -0.115773 0.435249 0.496229
v 0.029579 0.812640 -0.655747
v -0.107631 0.914433 0.453254
vn -0.4642 0.0088 0.8857
vn -0.7018 -0.1168 0.7027
vn 0.1503 0.2286 0.9619
vn 0.3219 0.1516 0.9346
vn 0.3591 -0.1650 0.9186
vn 0.9845 0.1731 0.0285
vn 0.6654 -0.0919 -0.7408
vn 0.7907 -0.0655 -0.6087
vn -0.4444 -0.0731 -0.8928
vn -0.5053 0.2573 -0.8237
vn -0.9924 0.0058 -0.1233
vn -0.5166 0.0089 0.8562
vn -0.7848 -0.1168 0.6087
vn -0.1080 0.2308 0.9670
vn 0.0215 0.1515 0.9882
vn -0.1475 -0.1483 0.9779
vn 0.8635 0.1732 0.4737
vn 0.8968 -0.0860 -0.4340
vn 0.9663 -0.0510 0.2523
vn 0.1429 -0.0711 -0.9872
vn 0.0334 0.2597 -0.9651
vn -0.2147 0.0059 -0.9767
vn -0.3959 -0.2399 -0.8864
vn -0.9915 0.0969 -0.0872
vt 0.508911 0.000000
vt 0.502697 0.993007
vt 0.000000 0.447525
vt 1.000000 0.445545
vt 0.000000 1.000000
vt 1.000000 1.000000
s 0
usemtl ST_Blades_2_Mat
f 79/1/1 80/2/1 81/3/1
f 79/1/1 82/4/1 80/2/1
f 81/3/1 80/2/1 83/5/1
f 82/4/1 84/6/1 80/2/1
f 85/1/2 86/3/2 87/2/2
f 85/1/2 87/2/2 88/4/2
f 86/3/2 89/5/2 87/2/2
f 88/4/2 87/2/2 90/6/2
f 91/1/3 92/3/3 93/2/3
f 91/1/3 93/2/3 94/4/3
f 92/3/3 95/5/3 93/2/3
f 94/4/3 93/2/3 96/6/3
f 97/1/4 98/2/4 99/3/4
f 97/1/4 100/4/4 98/2/4
f 99/3/4 98/2/4 101/5/4
f 100/4/4 102/6/4 98/2/4
f 103/1/5 104/2/5 105/3/5
f 103/1/5 106/4/5 104/2/5
f 105/3/5 104/2/5 107/5/5
f 106/4/5 108/6/5 104/2/5
f 109/1/6 110/2/6 111/3/6
f 109/1/6 112/4/6 110/2/6
f 111/3/6 110/2/6 113/5/6
f 112/4/6 114/6/6 110/2/6
f 115/1/7 116/3/7 117/2/7
f 115/1/7 117/2/7 118/4/7
f 116/3/7 119/5/7 117/2/7
f 118/4/7 117/2/7 120/6/7
f 121/1/8 122/2/8 123/3/8
f 121/1/8 124/4/8 122/2/8
f 123/3/8 122/2/8 125/5/8
f 124/4/8 126/6/8 122/2/8
f 127/1/9 128/2/9 129/3/9
f 127/1/9 130/4/9 128/2/9
f 129/3/9 128/2/9 131/5/9
f 130/4/9 132/6/9 128/2/9
f 133/1/10 134/2/10 135/3/10
f 133/1/10 136/4/10 134/2/10
f 135/3/10 134/2/10 137/5/10
f 136/4/10 138/6/10 134/2/10
f 139/1/11 140/2/11 141/3/11
f 139/1/11 142/4/11 140/2/11
f 141/3/11 140/2/11 143/5/11
f 142/4/11 144/6/11 140/2/11
usemtl ST_Blades_1_Mat
f 1/1/12 2/2/12 3/3/12
f 1/1/12 4/4/12 2/2/12
f 3/3/12 2/2/12 5/5/12
f 4/4/12 6/6/12 2/2/12
f 7/1/13 8/3/13 9/2/13
f 7/1/13 9/2/13 10/4/13
f 8/3/13 11/5/13 9/2/13
f 10/4/13 9/2/13 12/6/13
f 13/1/14 14/3/14 15/2/14
f 13/1/14 15/2/14 16/4/14
f 14/3/14 17/5/14 15/2/14
f 16/4/14 15/2/14 18/6/14
f 19/1/15 20/2/15 21/3/15
f 19/1/15 22/4/15 20/2/15
f 21/3/15 20/2/15 23/5/15
f 22/4/15 24/6/15 20/2/15
f 25/1/16 26/2/16 27/3/16
f 25/1/16 28/4/16 26/2/16
f 27/3/16 26/2/16 29/5/16
f 28/4/16 30/6/16 26/2/16
f 31/1/17 32/2/17 33/3/17
f 31/1/17 34/4/17 32/2/17
f 33/3/17 32/2/17 35/5/17
f 34/4/17 36/6/17 32/2/17
f 37/1/18 38/3/18 39/2/18
f 37/1/18 39/2/18 40/4/18
f 38/3/18 41/5/18 39/2/18
f 40/4/18 39/2/18 42/6/18
f 43/1/19 44/2/19 45/3/19
f 43/1/19 46/4/19 44/2/19
f 45/3/19 44/2/19 47/5/19
f 46/4/19 48/6/19 44/2/19
f 49/1/20 50/2/20 51/3/20
f 49/1/20 52/4/20 50/2/20
f 51/3/20 50/2/20 53/5/20
f 52/4/20 54/6/20 50/2/20
f 55/1/21 56/2/21 57/3/21
f 55/1/21 58/4/21 56/2/21
f 57/3/21 56/2/21 59/5/21
f 58/4/21 60/6/21 56/2/21
f 61/1/22 62/2/22 63/3/22
f 61/1/22 64/4/22 62/2/22
f 63/3/22 62/2/22 65/5/22
f 64/4/22 66/6/22 62/2/22
f 67/1/23 68/3/23 69/2/23
f 67/1/23 69/2/23 70/4/23
f 68/3/23 71/5/23 69/2/23
f 70/4/23 69/2/23 72/6/23
f 73/1/24 74/3/24 75/2/24
f 73/1/24 75/2/24 76/4/24
f 74/3/24 77/5/24 75/2/24
f 76/4/24 75/2/24 78/6/24
