# Blender 3.6.1
# www.blender.org
mtllib Grass06.mtl
o tall_bush_4
v -0.019613 0.231349 -0.010913
v -0.037832 -0.027622 0.020872
v 0.099279 -0.002398 -0.011409
v -0.222155 0.124800 0.065467
v -0.261139 0.248278 0.017827
v 0.010941 0.368963 -0.016326
v 0.120276 0.363830 -0.119804
v 0.042172 -0.019600 -0.019724
v 0.169132 0.580207 -0.206233
v 0.030790 0.748654 0.010724
v -0.055694 -0.019600 0.046808
v -0.148812 0.117406 0.110113
v -0.127264 0.369988 0.104208
v -0.137098 0.737467 0.215474
v -0.046587 1.179879 0.162114
v 0.198986 1.171355 0.007593
v -0.242777 0.431811 -0.078812
v -0.037338 0.454460 -0.079351
v 0.252185 0.278982 -0.038430
v 0.219693 0.509447 -0.045370
v -0.004563 0.498545 0.013383
v -0.051149 0.469967 0.172242
v -0.013378 0.259050 0.156426
v 0.046618 0.259072 -0.026586
v 0.000190 0.441709 -0.216523
v 0.034972 -0.015208 0.103979
v 0.023196 0.220048 -0.188298
v 0.035606 -0.018953 -0.120313
v 0.027225 -0.003421 -0.005032
v 0.058899 0.384175 -0.028862
v 0.170107 0.446697 0.077079
v -0.062656 0.415885 -0.124299
v 0.146805 0.721745 0.074976
v -0.114252 0.708677 -0.109387
v 0.013366 0.716777 -0.011039
v -0.027114 1.104160 0.096084
v -0.115945 0.714637 -0.108707
v -0.156614 1.104088 -0.006084
vn 0.2096 0.1046 0.9722
vn -0.3073 -0.0946 -0.9469
vn 0.1358 0.3936 0.9092
vn -0.6878 -0.0489 -0.7243
vn -0.6847 -0.1317 -0.7169
vn -0.8095 0.0837 -0.5812
vn 0.5618 0.0379 0.8264
vn 0.5913 0.0295 0.8059
vn 0.6566 -0.0384 0.7532
vn 0.6544 -0.0877 0.7511
vn 0.7669 -0.1671 0.6197
vn 0.7729 -0.0822 0.6292
vn 0.5169 -0.1995 0.8325
vn 0.7004 -0.2738 0.6592
vn 0.0494 -0.4692 -0.8817
vn -0.1334 -0.3003 -0.9445
vn -0.0447 -0.2962 -0.9541
vn -0.0928 -0.0451 -0.9947
vn 0.1334 -0.0110 -0.9910
vn 0.9419 0.1460 0.3025
vn 0.9396 0.1494 0.3080
vn 0.9763 0.2141 -0.0327
vn 0.9447 0.1073 0.3097
vn 0.9834 0.0814 -0.1621
vn 0.9992 -0.0408 0.0035
vn 0.9893 0.0099 -0.1457
vn 0.7154 -0.1010 -0.6914
vn 0.5987 -0.0978 -0.7950
vn 0.6735 0.0514 -0.7374
vn 0.6345 0.1504 -0.7581
vn 0.5349 0.1181 -0.8366
vn 0.6007 0.1246 -0.7897
vn 0.5131 0.2782 -0.8120
vn 0.5804 0.2531 -0.7740
vn 0.5961 0.2713 -0.7557
vn 0.5786 0.2638 -0.7718
vt 0.187622 0.132324
vt 0.186279 0.013672
vt 0.252686 0.013672
vt 0.090210 0.084961
vt 0.074280 0.142578
vt 0.899414 0.687256
vt 0.958008 0.687256
vt 0.906738 0.543457
vt 0.999023 0.769897
vt 0.899414 0.830811
vt 0.863281 0.543457
vt 0.822266 0.593750
vt 0.829590 0.687256
vt 0.799805 0.830811
vt 0.837891 0.974396
vt 0.938477 0.974396
vt 0.093018 0.228516
vt 0.174316 0.243164
vt 0.307373 0.121582
vt 0.279541 0.229492
vt 0.414551 0.256836
vt 0.342041 0.235352
vt 0.348633 0.132324
vt 0.450195 0.132324
vt 0.562012 0.218750
vt 0.375488 0.013672
vt 0.539062 0.102539
vt 0.505859 0.013672
vt 0.467285 0.541992
vt 0.469482 0.696289
vt 0.524414 0.718750
vt 0.414795 0.708496
vt 0.520508 0.821289
vt 0.412842 0.819092
vt 0.469482 0.821289
vt 0.493896 0.958191
vt 0.412842 0.821289
vt 0.438477 0.958191
s 1
usemtl phong3
f 1/1/1 2/2/1 3/3/1
f 4/4/2 1/1/2 2/2/2
f 1/1/3 5/5/3 4/4/3
f 6/6/4 7/7/4 8/8/4
f 6/6/5 9/9/5 7/7/5
f 9/9/6 6/6/6 10/10/6
f 11/11/7 8/8/7 6/6/7
f 12/12/8 11/11/8 6/6/8
f 6/6/9 13/13/9 12/12/9
f 13/13/10 6/6/10 10/10/10
f 10/10/11 14/14/11 13/13/11
f 14/14/12 10/10/12 15/15/12
f 15/15/13 10/10/13 16/16/13
f 10/10/14 9/9/14 16/16/14
f 5/5/15 17/17/15 18/18/15
f 18/18/16 1/1/16 5/5/16
f 1/1/17 18/18/17 19/19/17
f 3/3/18 1/1/18 19/19/18
f 18/18/19 20/20/19 19/19/19
f 21/21/20 22/22/20 23/23/20
f 23/23/21 24/24/21 21/21/21
f 25/25/22 21/21/22 24/24/22
f 26/26/23 24/24/23 23/23/23
f 24/24/24 27/27/24 25/25/24
f 26/26/25 28/28/25 24/24/25
f 24/24/26 28/28/26 27/27/26
f 29/29/27 30/30/27 31/31/27
f 30/30/28 29/29/28 32/32/28
f 30/30/29 33/33/29 31/31/29
f 32/32/30 34/34/30 30/30/30
f 33/33/31 30/30/31 35/35/31
f 30/30/32 34/34/32 35/35/32
f 35/35/33 36/36/33 33/33/33
f 35/35/34 34/34/34 37/37/34
f 38/38/35 36/36/35 35/35/35
f 37/37/36 38/38/36 35/35/36
