# Blender 3.6.1
# www.blender.org
mtllib Grass02.mtl
o tall_bush_2
v -0.061238 -0.020597 0.077650
v 0.025301 -0.020597 -0.025245
v -0.049144 0.378680 0.063270
v 0.104276 0.378680 -0.119146
v 0.036558 0.816452 -0.087052
v 0.124481 1.117586 -0.091046
v 0.216028 0.690217 -0.224751
v 0.095508 0.340238 -0.238127
v -0.084283 0.598960 0.226546
v 0.006552 1.039374 0.167499
v -0.032221 0.344608 -0.017208
v 0.030114 -0.030077 -0.051553
v -0.090953 0.511756 0.220634
v -0.034827 -0.025629 0.083819
v -0.040299 0.232179 0.069346
v 0.110946 0.407863 0.281477
v -0.015856 0.607904 0.284893
v 0.049675 -0.017893 0.034664
v -0.215054 0.590995 0.009166
v -0.025644 -0.018184 -0.029416
v -0.217035 0.231517 -0.140929
v -0.128715 0.721116 -0.038485
v 0.005592 1.175338 -0.103015
v 0.122386 0.775398 -0.178866
v -0.159518 1.173164 -0.001860
v -0.155159 0.669805 0.151135
v 0.015398 0.233646 -0.056715
v -0.124211 0.416802 -0.219303
v 0.097959 0.624956 -0.251105
v -0.055958 -0.019190 -0.047421
v 0.264074 0.595276 -0.058536
v 0.035648 -0.019941 -0.001246
v 0.272016 0.228158 0.060674
v -0.052158 1.242903 -0.145426
v 0.121141 0.876182 0.069212
v -0.102254 0.951742 -0.237695
v 0.052129 1.321121 0.105243
v -0.034058 0.428544 -0.194704
v 0.015308 0.876182 0.248339
v -0.273994 0.969858 0.069603
v -0.176355 0.428544 0.094819
v 0.122807 0.428544 0.066393
v -0.006823 0.014005 -0.108149
v -0.016748 -0.014356 0.059873
v 0.045399 0.428544 0.197409
v -0.095878 -0.003041 0.070281
vn 0.7653 -0.0000 0.6437
vn -0.5358 0.1454 -0.8317
vn -0.5011 0.2047 -0.8408
vn -0.9533 0.1625 -0.2547
vn -0.8641 0.0519 -0.5006
vn -0.9491 0.0938 -0.3006
vn -0.8624 -0.0979 -0.4967
vn -0.9495 0.0929 -0.2998
vn -0.8975 -0.1102 -0.4269
vn -0.9772 -0.0495 -0.2065
vn -0.5768 -0.3780 0.7242
vn -0.6234 -0.3231 0.7120
vn -0.7702 -0.2789 0.5735
vn -0.6130 -0.3207 0.7220
vn -0.7396 -0.2558 0.6225
vn -0.7330 -0.2863 0.6170
vn -0.4914 0.0216 -0.8707
vn -0.4666 -0.1108 -0.8775
vn -0.5224 0.0334 -0.8520
vn -0.7180 -0.3463 -0.6038
vn -0.9868 -0.0549 -0.1525
vn -0.9378 -0.2792 -0.2063
vn 0.3280 -0.4749 -0.8166
vn 0.6185 -0.2025 -0.7592
vn 0.6429 -0.4452 -0.6232
vn 0.4435 -0.1576 -0.8823
vn 0.3949 -0.2760 -0.8763
vn 0.4075 -0.1640 -0.8984
vn 0.8129 0.0442 -0.5808
vn 0.8893 0.1722 -0.4237
vn 0.8139 0.0586 -0.5780
vn 0.8573 0.0920 0.5065
vn -0.4255 0.3088 0.8506
vn -0.5382 -0.0579 0.8408
vn 0.8572 0.0064 -0.5150
vn 0.8561 -0.0511 -0.5143
vn 0.9537 -0.3006 0.0056
vn 0.8610 -0.0000 0.5087
vn -0.4163 -0.1304 0.8998
vn 0.8293 -0.2685 0.4900
vn -0.4164 -0.1288 0.9000
vn 0.0810 -0.3059 0.9486
vt 0.039368 0.270996
vt 0.091919 0.270996
vt 0.046722 0.427246
vt 0.139893 0.427246
vt 0.682617 0.875122
vt 0.702148 0.986679
vt 0.764648 0.824097
vt 0.750000 0.693848
vt 0.564453 0.785522
vt 0.556641 0.982361
vt 0.659180 0.693848
vt 0.685547 0.547363
vt 0.565918 0.752441
vt 0.626953 0.547363
vt 0.294922 0.642334
vt 0.382568 0.711426
vt 0.332031 0.790283
vt 0.312256 0.542969
vt 0.224854 0.782471
vt 0.273438 0.542969
vt 0.189453 0.641602
vt 0.083069 0.561768
vt 0.123596 0.739258
vt 0.167358 0.582520
vt 0.064392 0.738525
vt -0.001195 0.541260
vt 0.933105 0.502441
vt 0.852051 0.359863
vt 0.986816 0.389160
vt 0.821777 0.533936
vt 0.958008 0.185547
vt 0.738281 0.359863
vt 0.587402 0.405273
vt 0.673828 0.185547
vt 0.857422 0.185547
vt 0.909180 0.024414
vt 0.816895 0.013184
vt 0.769043 0.185547
vt 0.719727 0.017578
s 1
usemtl phong3
f 1/1/1 2/2/1 3/3/1
f 3/3/1 2/2/1 4/4/1
f 5/5/2 6/6/2 7/7/2
f 5/5/3 7/7/3 8/8/3
f 9/9/4 10/10/4 5/5/4
f 11/11/5 5/5/5 8/8/5
f 9/9/6 5/5/6 11/11/6
f 12/12/7 11/11/7 8/8/7
f 13/13/8 9/9/8 11/11/8
f 14/14/9 11/11/9 12/12/9
f 11/11/10 14/14/10 13/13/10
f 15/15/11 16/16/11 17/17/11
f 15/15/12 18/18/12 16/16/12
f 19/19/13 15/15/13 17/17/13
f 20/20/14 18/18/14 15/15/14
f 21/21/15 15/15/15 19/19/15
f 20/20/16 15/15/16 21/21/16
f 22/22/17 23/23/17 24/24/17
f 22/22/18 24/24/18 4/4/18
f 25/25/19 23/23/19 22/22/19
f 3/3/20 22/22/20 4/4/20
f 26/26/21 25/25/21 22/22/21
f 3/3/22 26/26/22 22/22/22
f 27/15/23 28/16/23 29/17/23
f 27/15/24 30/18/24 28/16/24
f 31/19/25 27/15/25 29/17/25
f 32/20/26 30/18/26 27/15/26
f 33/21/27 27/15/27 31/19/27
f 32/20/28 27/15/28 33/21/28
f 34/27/29 35/28/29 36/29/29
f 35/28/30 34/27/30 37/30/30
f 35/28/31 38/31/31 36/29/31
f 39/32/32 35/28/32 37/30/32
f 40/33/33 39/32/33 37/30/33
f 41/34/34 39/32/34 40/33/34
f 42/35/35 38/31/35 35/28/35
f 42/35/36 43/36/36 38/31/36
f 44/37/37 43/36/37 42/35/37
f 35/28/38 39/32/38 45/38/38
f 45/38/38 42/35/38 35/28/38
f 39/32/39 41/34/39 45/38/39
f 45/38/40 44/37/40 42/35/40
f 46/39/41 45/38/41 41/34/41
f 46/39/42 44/37/42 45/38/42
