# Blender 3.6.1
# www.blender.org
mtllib Grass08.mtl
o Small_bush_2
v -0.020747 0.313364 0.038073
v 0.084478 0.285218 0.102622
v 0.128621 0.158602 0.046684
v 0.004170 -0.013951 -0.092993
v 0.002040 0.171606 -0.001143
v 0.015661 0.171606 -0.155788
v 0.011846 0.318923 -0.057850
v 0.117934 0.293376 -0.192283
v 0.004513 -0.013951 0.104772
v -0.038291 0.125291 0.148444
v -0.088330 0.263309 0.137995
v -0.126930 0.149505 -0.038270
v -0.079944 0.283533 -0.063905
v -0.019679 0.169141 0.030736
v -0.169640 0.097218 -0.030276
v -0.036740 -0.013951 -0.002317
v 0.102335 -0.013951 0.009590
vn 0.5472 0.4904 -0.6782
vn -0.9956 0.0320 -0.0877
vn -0.9956 0.0325 -0.0877
vn -0.6849 0.3910 -0.6148
vn 0.9999 0.0123 -0.0017
vn 0.9318 0.1893 0.3098
vn 0.8748 0.3431 0.3421
vn 0.8680 0.1270 0.4801
vn -0.8464 0.3700 0.3831
vn -0.5344 -0.0469 0.8439
vn -0.5252 0.5307 0.6652
vn -0.1104 -0.0513 0.9926
vn -0.3147 -0.1401 0.9388
vn -0.1184 -0.1914 0.9743
vn -0.0841 -0.1694 0.9819
vt 0.174316 0.243164
vt 0.279541 0.229492
vt 0.307373 0.121582
vt 0.375488 0.013672
vt 0.450195 0.132324
vt 0.348633 0.132324
vt 0.414551 0.256836
vt 0.342041 0.235352
vt 0.505859 0.013672
vt 0.539062 0.102539
vt 0.562012 0.218750
vt 0.074280 0.142578
vt 0.093018 0.228516
vt 0.187622 0.132324
vt 0.090210 0.084961
vt 0.186279 0.013672
vt 0.252686 0.013672
s 1
usemtl phong3
f 1/1/1 2/2/1 3/3/1
f 4/4/2 5/5/2 6/6/2
f 6/6/3 5/5/3 7/7/3
f 7/7/4 8/8/4 6/6/4
f 4/4/5 5/5/5 9/9/5
f 5/5/6 10/10/6 9/9/6
f 5/5/7 11/11/7 10/10/7
f 11/11/8 5/5/8 7/7/8
f 12/12/9 1/1/9 13/13/9
f 1/1/10 12/12/10 14/14/10
f 14/14/11 12/12/11 15/15/11
f 14/14/12 3/3/12 1/1/12
f 15/15/13 16/16/13 14/14/13
f 17/17/14 3/3/14 14/14/14
f 14/14/15 16/16/15 17/17/15
