# Blender 3.6.1
# www.blender.org
mtllib Grass09.mtl
o Small_bush_1
v 0.009748 0.136848 0.071950
v -0.103725 0.124307 0.004093
v -0.023677 0.269917 0.115085
v 0.045238 0.120196 -0.057777
v 0.039716 0.289251 -0.049941
v 0.141487 0.154795 -0.129440
v -0.173060 0.193038 -0.010385
v -0.048105 0.124874 0.026572
v -0.075467 0.292404 0.057966
v 0.002999 0.122808 -0.004504
v -0.009473 0.290830 0.007532
v -0.060727 -0.006066 -0.023945
v 0.106079 -0.007759 -0.051232
v -0.165473 0.270978 0.024217
v 0.134723 0.267319 -0.118825
v -0.091513 -0.005985 -0.047549
v -0.010363 0.138593 -0.078845
v -0.102495 0.137999 -0.143692
v 0.027371 -0.005985 0.012982
v 0.074919 0.103248 -0.011576
v -0.018790 0.282322 -0.104156
v -0.086973 0.262159 -0.157673
v 0.119843 0.152621 0.135300
v 0.064345 0.259366 0.157922
v 0.003352 -0.004131 -0.018597
v 0.034206 -0.006638 0.049621
v 0.132281 0.081980 0.097652
v -0.073460 0.255933 0.018863
v 0.028755 -0.006066 -0.011363
v 0.102407 0.240594 -0.044495
vn 0.4448 0.3753 -0.8132
vn -0.6011 0.0174 -0.7990
vn -0.3896 -0.2307 0.8916
vn 0.7598 0.0098 0.6500
vn -0.4145 -0.2925 0.8618
vn 0.5056 0.2821 0.8153
vn 0.2466 0.3731 -0.8944
vn -0.5801 0.0419 -0.8135
vn -0.5165 0.4479 0.7298
vn -0.4141 0.4085 0.8134
vn 0.4690 -0.3831 -0.7958
vn 0.6387 -0.1645 -0.7517
vn 0.4395 0.3990 -0.8048
vn 0.4108 0.4794 -0.7755
vn 0.8930 0.2138 -0.3960
vn -0.2840 -0.1945 0.9389
vn -0.8865 0.1549 0.4361
vn 0.4218 0.3737 -0.8261
vn 0.1306 0.3459 -0.9291
vn -0.6057 0.0499 -0.7941
vn 0.4474 0.2565 0.8568
vn -0.5188 0.0227 -0.8546
vn 0.5130 -0.2958 -0.8058
vn 0.7805 0.1234 0.6128
vn 0.5726 -0.1095 -0.8125
vn 0.3994 -0.1362 -0.9066
vn 0.3825 0.4861 -0.7857
vn -0.7835 0.0032 -0.6214
vn 0.5204 0.0587 0.8519
vt 0.187622 0.132324
vt 0.307373 0.121582
vt 0.174316 0.243164
vt 0.439697 0.382324
vt 0.438232 0.520264
vt 0.572754 0.408203
vt 0.169678 0.438477
vt 0.313965 0.382324
vt 0.303955 0.520264
vt 0.376709 0.382324
vt 0.371094 0.520264
vt 0.274170 0.273926
vt 0.495850 0.273926
vt 0.208008 0.502686
vt 0.563965 0.498535
vt 0.375488 0.013672
vt 0.450195 0.132324
vt 0.348633 0.132324
vt 0.505859 0.013672
vt 0.539062 0.102539
vt 0.414551 0.256836
vt 0.342041 0.235352
vt 0.074280 0.142578
vt 0.093018 0.228516
vt 0.252686 0.013672
vt 0.186279 0.013672
vt 0.090210 0.084961
vt 0.279541 0.229492
vt 0.385010 0.273926
vt 0.562012 0.218750
s 1
usemtl phong3
f 1/1/1 2/2/1 3/3/1
f 4/4/2 5/5/2 6/6/2
f 7/7/3 8/8/3 9/9/3
f 10/10/4 5/5/4 11/11/4
f 12/12/5 8/8/5 7/7/5
f 13/13/6 6/6/6 4/4/6
f 9/9/7 7/7/7 14/14/7
f 5/5/8 15/15/8 6/6/8
f 16/16/9 17/17/9 18/18/9
f 16/16/10 19/19/10 17/17/10
f 17/17/11 20/20/11 19/19/11
f 21/21/12 18/18/12 22/22/12
f 23/23/13 3/3/13 24/24/13
f 25/25/14 2/2/14 1/1/14
f 1/1/15 26/26/15 25/25/15
f 27/27/16 1/1/16 26/26/16
f 3/3/17 28/28/17 2/2/17
f 3/3/18 23/23/18 1/1/18
f 29/29/19 12/12/19 8/8/19
f 8/8/20 9/9/20 11/11/20
f 29/29/21 13/13/21 4/4/21
f 8/8/22 11/11/22 10/10/22
f 17/17/23 30/30/23 20/20/23
f 29/29/24 4/4/24 10/10/24
f 18/18/25 21/21/25 17/17/25
f 30/30/26 17/17/26 21/21/26
f 1/1/27 23/23/27 27/27/27
f 10/10/28 5/5/28 4/4/28
f 29/29/29 10/10/29 8/8/29
