# Blender 3.6.1
# www.blender.org
mtllib Grass03.mtl
o Medium_bush_2
v 0.002615 0.600720 -0.060100
v -0.007784 0.528235 -0.202615
v -0.053646 0.343888 -0.213426
v -0.124031 -0.003792 0.008801
v -0.211168 0.268374 -0.074168
v -0.029497 0.268373 -0.138012
v 0.044983 -0.003792 -0.059422
v -0.184126 0.418193 -0.254631
v -0.322732 0.387298 -0.225760
v 0.011357 0.303630 -0.351831
v 0.091873 0.177240 -0.220581
v 0.261359 0.277794 0.165427
v 0.085025 0.193258 0.246798
v 0.239528 0.250618 0.348436
v 0.126167 0.191242 -0.001364
v -0.046247 -0.002153 0.169956
v 0.304546 0.178324 -0.112396
v 0.006646 -0.004745 -0.149087
v 0.166769 0.108982 -0.180589
v -0.031521 0.422195 0.117494
v 0.028217 0.264652 0.118998
v 0.057097 0.314634 -0.041552
v 0.068404 -0.005117 0.116485
v -0.070685 -0.005589 -0.185912
v 0.089822 0.251640 0.260709
v -0.097474 0.412716 0.238034
v -0.005940 0.337133 0.362160
v -0.249646 0.208343 -0.064137
v -0.297636 0.382936 0.208854
v -0.028363 0.227958 0.049955
v 0.126352 0.131299 0.169213
v -0.079490 -0.002150 -0.057632
v 0.033861 -0.003153 0.016685
vn -0.9683 0.2440 -0.0535
vn -0.3085 -0.3664 -0.8778
vn -0.3510 -0.3472 -0.8696
vn -0.0398 0.7717 0.6347
vn 0.2256 0.7327 0.6421
vn 0.5767 0.7812 0.2390
vn 0.6830 0.6885 0.2440
vn 0.6960 0.3684 0.6164
vn -0.3972 0.9135 0.0883
vn -0.4619 0.8829 -0.0838
vn -0.7965 0.5889 -0.1368
vn -0.1536 0.9225 -0.3542
vn -0.2155 0.8681 -0.4472
vn -0.5751 0.6863 -0.4453
vn 0.8211 0.3159 0.4754
vn 0.9525 0.1965 0.2325
vn 0.8435 0.1268 -0.5219
vn 0.9656 0.1418 0.2178
vn 0.8311 -0.0838 -0.5498
vn 0.8951 -0.1717 -0.4114
vn 0.6534 0.7568 -0.0210
vn -0.0454 0.8379 -0.5439
vn 0.6200 0.6615 -0.4220
vn 0.2582 0.7349 -0.6271
vn 0.6967 0.5561 -0.4532
vn 0.4142 0.3084 -0.8564
vn 0.6900 0.2818 -0.6667
vn 0.5312 0.2591 -0.8067
vt 0.414551 0.256836
vt 0.342041 0.235352
vt 0.348633 0.132324
vt 0.375488 0.013672
vt 0.450195 0.132324
vt 0.505859 0.013672
vt 0.562012 0.218750
vt 0.539062 0.102539
vt 0.074280 0.142578
vt 0.174316 0.243164
vt 0.093018 0.228516
vt 0.307373 0.121582
vt 0.279541 0.229492
vt 0.187622 0.132324
vt 0.090210 0.084961
vt 0.252686 0.013672
vt 0.186279 0.013672
s 1
usemtl phong3
f 1/1/1 2/2/1 3/3/1
f 4/4/2 5/3/2 6/5/2
f 4/4/3 6/5/3 7/6/3
f 8/1/4 9/2/4 5/3/4
f 5/3/5 6/5/5 8/1/5
f 10/7/6 8/1/6 6/5/6
f 6/5/7 11/8/7 10/7/7
f 6/5/8 7/6/8 11/8/8
f 12/1/9 13/3/9 14/2/9
f 13/3/10 12/1/10 15/5/10
f 16/4/11 13/3/11 15/5/11
f 17/7/12 15/5/12 12/1/12
f 16/4/11 15/5/11 18/6/11
f 15/5/13 17/7/13 19/8/13
f 15/5/14 19/8/14 18/6/14
f 20/7/15 21/8/15 1/1/15
f 22/5/16 1/1/16 21/8/16
f 3/3/17 1/1/17 22/5/17
f 22/5/18 21/8/18 23/6/18
f 24/4/19 3/3/19 22/5/19
f 24/4/20 22/5/20 23/6/20
f 25/9/21 26/10/21 27/11/21
f 26/10/22 28/12/22 29/13/22
f 26/10/23 25/9/23 30/14/23
f 30/14/24 28/12/24 26/10/24
f 30/14/25 25/9/25 31/15/25
f 32/16/26 28/12/26 30/14/26
f 31/15/27 33/17/27 30/14/27
f 30/14/28 33/17/28 32/16/28
