# Blender 3.6.1
# www.blender.org
mtllib Grass04.mtl
o Medium_bush_1
v 0.208003 0.264441 -0.066924
v 0.052094 0.512644 -0.044848
v -0.023527 0.241207 -0.011482
v 0.145679 -0.007376 -0.043355
v -0.080623 -0.000912 0.123371
v 0.256169 0.473724 -0.055632
v -0.368348 0.212170 0.117186
v -0.328937 0.353462 0.133687
v -0.214668 0.377360 0.057940
v -0.078668 -0.000504 0.051503
v -0.178772 0.195136 0.090095
v -0.010234 0.177139 -0.020872
v -0.042451 0.355239 0.023242
v 0.240657 0.209837 -0.153164
v 0.242852 0.384393 -0.229564
v 0.096622 0.231487 -0.110243
v 0.159769 -0.007287 -0.111035
v 0.119186 0.001735 -0.062791
v 0.105396 0.163643 0.010014
v -0.035940 0.001735 0.032036
v 0.008017 0.212170 0.021583
v 0.023728 0.353462 0.061316
v 0.157742 0.377360 0.090213
v 0.302841 0.355239 0.189253
v 0.356915 0.177139 0.181508
v -0.312877 0.107743 -0.017206
v -0.354512 0.219108 -0.104688
v -0.284976 0.210208 -0.224903
v -0.136247 0.218346 -0.320640
v -0.019812 0.083456 -0.266316
v -0.045936 0.107743 -0.348698
v 0.045415 0.219108 -0.380970
v 0.157710 0.210208 -0.299259
v 0.237392 0.218346 -0.141345
v 0.171205 0.083456 -0.031220
v 0.107865 0.543865 -0.079755
v 0.137693 0.450476 0.111313
v 0.185033 0.620618 -0.032394
v 0.073604 0.260425 0.069711
v 0.304898 0.640229 -0.187419
v 0.031901 0.116934 0.032531
v 0.159793 0.195136 0.138361
v 0.157863 -0.000504 0.137476
v -0.115366 0.444839 0.233127
v -0.112312 0.212750 0.192225
v 0.031436 0.006185 -0.084984
v -0.151403 0.129385 -0.119289
v 0.102029 -0.001214 -0.033714
v -0.046683 0.006854 -0.008387
v -0.242402 0.047929 0.017662
v -0.086748 0.000224 -0.038140
v -0.065803 0.241380 -0.000181
v -0.222714 0.241380 -0.095730
v -0.040034 0.000224 0.046519
v -0.081301 0.209002 0.147360
v -0.051221 0.392386 0.189517
v 0.257321 -0.000504 0.183065
v -0.152189 0.272965 -0.235205
v -0.308153 0.211643 -0.284959
v -0.376161 0.162820 -0.178090
v -0.143304 0.163643 -0.063442
v -0.210388 0.001735 -0.031968
v 0.015749 0.272965 -0.230521
v -0.042661 0.001735 0.038202
v 0.207691 0.115371 -0.230885
v 0.145396 0.204698 -0.337132
v 0.027648 0.163643 -0.059260
v 0.141722 0.001735 -0.066573
v 0.249805 0.272965 0.103436
v 0.381494 0.211643 0.006183
v 0.334722 0.162820 -0.111540
v 0.147628 0.272964 0.236796
v 0.035480 0.115371 0.392567
v 0.158080 0.204698 0.404322
v 0.001860 0.163643 0.146112
v -0.059040 0.001735 0.242847
v -0.343833 0.116934 0.107735
v -0.180753 -0.000504 0.090858
v -0.163686 0.539582 0.011245
v -0.325935 0.411376 -0.046691
v -0.280719 0.682366 0.035252
v -0.168042 0.626774 0.239452
v -0.150617 0.162974 0.081312
v -0.010653 0.276560 0.160599
v -0.057480 0.406564 0.091969
v -0.157087 0.393728 -0.054019
v -0.134620 -0.000405 0.104759
v -0.189894 0.161712 -0.102102
v -0.170462 -0.000405 0.052227
v 0.211201 0.162974 0.154267
v 0.222217 0.276560 -0.006217
v 0.180562 0.406564 0.065670
v 0.225432 -0.000405 0.129708
v 0.091955 0.393728 0.218585
v 0.193548 -0.000405 0.184732
v 0.062771 0.161712 0.268949
v -0.035877 0.224484 0.056282
v 0.146965 0.379069 0.068789
v 0.071986 0.555997 0.015123
v -0.010262 0.002134 0.074616
v -0.087507 0.538529 -0.099035
v -0.067653 0.002134 0.033538
v -0.140038 0.222766 -0.136635
v 0.038725 0.129385 -0.177446
v -0.014487 0.006185 0.000810
v -0.087974 0.047929 -0.282250
v -0.082507 0.006854 -0.084881
vn 0.2272 0.0562 0.9722
vn -0.2298 -0.0317 -0.9727
vn 0.5727 0.2916 0.7661
vn -0.0407 0.0632 -0.9972
vn -0.5708 0.2505 -0.7820
vn -0.5549 -0.1216 -0.8230
vn -0.1674 0.2084 -0.9636
vn 0.3161 0.3771 0.8706
vn -0.2951 -0.0749 -0.9525
vn 0.4939 -0.3213 0.8080
vn 0.1612 0.2505 -0.9546
vn 0.5729 0.2084 -0.7927
vn -0.7286 -0.5703 -0.3792
vn -0.4011 -0.6184 -0.6758
vn 0.4533 -0.5703 -0.6850
vn 0.7140 -0.6184 -0.3284
vn -0.7591 0.5302 0.3777
vn -0.9289 0.2543 0.2693
vn -0.5589 0.2650 -0.7857
vn -0.6871 0.0950 -0.7203
vn 0.6385 -0.0028 -0.7696
vn 0.6130 0.0632 -0.7875
vn -0.8613 0.1816 -0.4746
vn -0.9181 0.0570 -0.3922
vn -0.9163 -0.0069 -0.4003
vn 0.5199 0.8290 0.2063
vn 0.4433 0.8884 0.1192
vn 0.1700 0.8745 0.4543
vn 0.9897 -0.0487 0.1344
vn 0.9912 0.0615 0.1169
vn 0.7916 0.2074 0.5748
vn -0.4419 -0.7795 -0.4439
vn -0.2397 -0.7561 -0.6090
vn -0.3000 -0.7190 -0.6270
vn -0.5180 -0.0889 0.8507
vn -0.8756 -0.0000 0.4831
vn -0.9826 -0.1305 -0.1319
vn -0.9823 0.1760 -0.0646
vn -0.4167 -0.0000 0.9091
vn -0.2016 0.1216 0.9719
vn -0.1853 0.2491 0.9506
vn -0.5830 0.2014 0.7871
vn -0.4039 0.9016 0.1549
vn -0.2627 0.8078 0.5277
vn -0.4169 0.3368 0.8443
vn -0.0150 0.8432 0.5374
vn -0.3655 0.3213 0.8736
vn 0.6118 0.7445 0.2672
vn -0.0209 0.5222 0.8525
vn -0.0132 0.8424 0.5387
vn 0.5794 0.7047 0.4096
vn 0.4721 0.2951 0.8307
vn 0.6764 0.4502 0.5829
vn 0.1111 0.9016 -0.4181
vn -0.2738 0.8078 -0.5220
vn -0.4400 0.3368 -0.8324
vn -0.4268 0.8432 -0.3270
vn -0.5750 0.7445 0.3393
vn -0.4288 0.8424 -0.3262
vn -0.6713 0.7047 0.2296
vn -0.6787 0.5222 -0.5163
vn -0.8687 0.4502 0.2067
vn -0.9498 0.2951 -0.1041
vn 0.5510 0.2491 0.7965
vn 0.1563 0.2014 0.9670
vn 0.1356 -0.0632 0.9887
vn 0.1049 0.0028 0.9945
vn 0.3597 -0.0000 0.9331
vn 0.1299 0.2671 -0.9549
vn 0.0823 0.3220 -0.9431
vn 0.5097 0.1994 -0.8370
vn 0.8986 0.3070 -0.3134
vn 0.8689 0.4676 -0.1621
vn -0.5983 0.1948 0.7772
vn -0.8034 0.2843 0.5232
vn -0.5334 0.0688 0.8431
vn -0.9736 0.0946 0.2078
vn -0.8260 -0.0000 0.5636
vn -0.9747 0.0813 0.2082
vn 0.9595 0.1948 0.2037
vn 0.9908 0.0688 0.1167
vn 0.8190 0.2843 0.4984
vn 0.8652 -0.0000 0.5014
vn 0.6082 0.0946 0.7882
vn 0.6089 0.0813 0.7890
vn -0.2282 0.1927 0.9543
vn -0.1246 0.0673 0.9899
vn -0.5785 0.2832 0.7649
vn -0.5820 -0.0000 0.8132
vn -0.8767 0.0896 0.4726
vn -0.8776 0.0770 0.4732
vn -0.1649 0.8884 0.4284
vn -0.4695 0.8745 0.1216
vn -0.2595 0.8290 0.4955
vn -0.6549 0.7190 0.2329
vn -0.4877 0.7795 0.3932
vn -0.6307 0.7561 0.1748
vt 0.348633 0.132324
vt 0.414551 0.256836
vt 0.450195 0.132324
vt 0.375488 0.013672
vt 0.505859 0.013672
vt 0.342041 0.235352
vt 0.074280 0.142578
vt 0.093018 0.228516
vt 0.174316 0.243164
vt 0.252686 0.013672
vt 0.187622 0.132324
vt 0.307373 0.121582
vt 0.279541 0.229492
vt 0.568359 0.693848
vt 0.564453 0.785522
vt 0.659180 0.693848
vt 0.626953 0.547363
vt 0.274170 0.273926
vt 0.313965 0.382324
vt 0.383057 0.273926
vt 0.682617 0.875122
vt 0.764648 0.824097
vt 0.702148 0.986679
vt 0.750000 0.693848
vt 0.556641 0.982361
vt 0.090210 0.084961
vt 0.186279 0.013672
vt 0.562012 0.218750
vt 0.539062 0.102539
vt 0.685547 0.547363
vt 0.303955 0.520264
vt 0.208008 0.502686
vt 0.169678 0.438477
vt 0.438232 0.520264
vt 0.572754 0.408203
vt 0.563965 0.498535
vt 0.439697 0.382324
vt 0.495850 0.273926
vt 0.294922 0.642334
vt 0.382568 0.711426
vt 0.332031 0.790283
vt 0.224854 0.782471
vt 0.312256 0.542969
vt 0.189453 0.641602
vt 0.273438 0.542969
s 1
usemtl phong3
f 1/1/1 2/2/1 3/3/1
f 4/4/2 3/3/2 1/1/2
f 4/4/3 3/3/3 5/5/3
f 2/2/4 6/6/4 1/1/4
f 7/7/5 8/8/5 9/9/5
f 10/10/6 11/11/6 12/12/6
f 9/9/7 13/13/7 12/12/7
f 14/14/8 15/15/8 16/16/8
f 16/16/9 14/14/9 17/17/9
f 18/18/10 19/19/10 20/20/10
f 21/7/11 22/8/11 23/9/11
f 23/9/12 24/13/12 25/12/12
f 26/7/13 27/8/13 28/9/13
f 28/9/14 29/13/14 30/12/14
f 31/7/15 32/8/15 33/9/15
f 33/9/16 34/13/16 35/12/16
f 36/21/17 37/22/17 38/23/17
f 36/21/18 39/24/18 37/22/18
f 15/15/19 36/21/19 40/25/19
f 15/15/20 16/16/20 36/21/20
f 41/26/21 42/11/21 43/27/21
f 42/11/22 41/26/22 21/7/22
f 44/28/23 2/2/23 3/3/23
f 3/3/24 45/29/24 44/28/24
f 3/3/25 5/5/25 45/29/25
f 46/10/26 30/12/26 47/11/26
f 47/11/27 30/12/27 28/9/27
f 28/9/28 26/7/28 47/11/28
f 16/16/29 36/21/29 39/24/29
f 48/30/30 16/16/30 39/24/30
f 17/17/31 16/16/31 48/30/31
f 47/11/32 46/10/32 49/27/32
f 50/26/33 47/11/33 49/27/33
f 47/11/34 50/26/34 26/7/34
f 51/30/35 52/16/35 53/24/35
f 54/17/36 52/16/36 51/30/36
f 52/16/37 54/17/37 55/14/37
f 55/14/38 56/15/38 52/16/38
f 42/11/39 43/27/39 57/10/39
f 57/10/40 25/12/40 42/11/40
f 42/11/41 25/12/41 23/9/41
f 23/9/42 21/7/42 42/11/42
f 58/31/43 59/32/43 60/33/43
f 60/33/44 61/19/44 58/31/44
f 62/18/45 61/19/45 60/33/45
f 61/19/46 63/34/46 58/31/46
f 62/18/47 64/20/47 61/19/47
f 63/34/48 65/35/48 66/36/48
f 61/19/49 64/20/49 67/37/49
f 61/19/50 67/37/50 63/34/50
f 67/37/51 65/35/51 63/34/51
f 67/37/52 64/20/52 68/38/52
f 68/38/53 65/35/53 67/37/53
f 69/31/54 70/32/54 71/33/54
f 71/33/55 19/19/55 69/31/55
f 18/18/56 19/19/56 71/33/56
f 19/19/57 72/34/57 69/31/57
f 72/34/58 73/35/58 74/36/58
f 19/19/59 75/37/59 72/34/59
f 75/37/60 73/35/60 72/34/60
f 19/19/61 20/20/61 75/37/61
f 76/38/62 73/35/62 75/37/62
f 75/37/63 20/20/63 76/38/63
f 11/11/64 12/12/64 9/9/64
f 9/9/65 7/7/65 11/11/65
f 11/11/66 7/7/66 77/26/66
f 77/26/67 78/27/67 11/11/67
f 11/11/68 78/27/68 10/10/68
f 79/21/69 80/22/69 81/23/69
f 79/21/70 53/24/70 80/22/70
f 52/16/71 53/24/71 79/21/71
f 56/15/72 52/16/72 79/21/72
f 56/15/73 79/21/73 82/25/73
f 83/39/74 84/40/74 85/41/74
f 86/42/75 83/39/75 85/41/75
f 83/39/76 87/43/76 84/40/76
f 88/44/77 83/39/77 86/42/77
f 89/45/78 87/43/78 83/39/78
f 89/45/79 83/39/79 88/44/79
f 90/39/80 91/40/80 92/41/80
f 90/39/81 93/43/81 91/40/81
f 94/42/82 90/39/82 92/41/82
f 95/45/83 93/43/83 90/39/83
f 96/44/84 90/39/84 94/42/84
f 95/45/85 90/39/85 96/44/85
f 97/39/86 98/40/86 99/41/86
f 97/39/87 100/43/87 98/40/87
f 101/42/88 97/39/88 99/41/88
f 102/45/89 100/43/89 97/39/89
f 103/44/90 97/39/90 101/42/90
f 102/45/91 97/39/91 103/44/91
f 104/11/92 35/12/92 33/9/92
f 33/9/93 31/7/93 104/11/93
f 105/10/94 35/12/94 104/11/94
f 104/11/95 31/7/95 106/26/95
f 104/11/96 107/27/96 105/10/96
f 106/26/97 107/27/97 104/11/97
