# Blender 3.6.1
# www.blender.org
mtllib Grass07.mtl
o Medium_bush_3
v 0.050538 -0.011549 -0.001300
v 0.020248 0.205169 0.005301
v 0.141386 0.204313 0.047972
v 0.036147 0.474518 0.004214
v 0.079713 0.638289 0.062034
v 0.136461 0.398465 0.075858
v -0.115124 0.344734 -0.052641
v -0.121187 0.593002 -0.051340
v 0.042879 -0.017590 0.109811
v 0.025679 0.128800 0.154990
v -0.055867 0.158351 0.032467
v -0.008047 -0.012616 -0.053193
v -0.034590 -0.011549 0.016974
v -0.122131 0.192854 -0.035832
v -0.046298 -0.018932 -0.004416
v -0.118194 0.079691 -0.135342
v 0.043855 0.139587 -0.095169
v 0.051074 -0.011555 0.008567
v 0.196786 0.069900 -0.051119
v -0.180594 0.207695 0.127075
v -0.121241 0.172794 0.216259
v -0.242974 0.125752 -0.049098
v -0.066599 0.078422 -0.078152
v 0.087740 0.179702 -0.240242
v -0.061930 0.133509 -0.272626
v 0.226122 0.117300 -0.117110
v 0.211360 0.149895 -0.233790
v 0.178204 0.143907 -0.086531
v 0.195191 0.225524 -0.027028
v 0.173174 0.191345 0.067842
v 0.089299 0.176048 0.168476
v 0.008851 0.086765 0.119583
v 0.106218 0.083646 0.019461
v 0.133834 0.088476 -0.102754
v -0.009274 -0.015449 0.025943
v 0.028603 0.002761 -0.043420
v 0.004297 0.191546 0.018338
v -0.053778 0.496004 0.068305
v -0.060601 0.334715 0.169274
v -0.022596 -0.012657 0.041476
v 0.020160 0.479961 -0.121589
v 0.037657 -0.012657 -0.010365
v 0.075311 0.189969 -0.169040
vn 0.3318 0.0750 -0.9404
vn -0.3320 0.0234 0.9430
vn 0.6293 0.1045 -0.7701
vn 0.6378 0.1253 -0.7600
vn 0.3418 0.0133 -0.9397
vn 0.3709 -0.0256 -0.9283
vn -0.8327 -0.2503 0.4939
vn -0.8859 -0.3806 0.2652
vn 0.2099 -0.0004 0.9777
vn -0.2853 0.1234 0.9505
vn -0.2850 0.1184 0.9512
vn 0.3964 -0.6155 -0.6813
vn 0.1511 -0.5545 -0.8184
vn -0.0208 -0.5664 -0.8238
vn 0.3371 0.9310 0.1400
vn 0.3588 0.9333 -0.0137
vn 0.0304 0.9021 -0.4304
vn 0.1175 0.7995 -0.5891
vn 0.8207 0.4223 -0.3848
vn -0.3313 0.9167 0.2236
vn -0.3737 0.9168 0.1405
vn 0.1517 0.9399 0.3058
vn 0.2160 0.9471 0.2373
vn 0.1684 0.7636 0.6233
vn 0.9514 -0.2843 0.1184
vn 0.5789 -0.7255 0.3722
vn 0.7875 -0.5814 0.2043
vn 0.5621 -0.6035 0.5655
vn 0.7515 -0.6438 0.1444
vn 0.5570 -0.6125 0.5608
vn 0.6672 -0.7349 0.1217
vn 0.6481 -0.7449 0.1583
vn 0.9503 0.1353 0.2803
vn 0.8921 -0.0668 0.4470
vn 0.9286 0.1194 0.3515
vn 0.6522 -0.0000 0.7580
vn 0.9288 0.1192 0.3510
vn 0.9305 0.1026 0.3518
vt 0.685547 0.547363
vt 0.659180 0.693848
vt 0.750000 0.693848
vt 0.682617 0.875122
vt 0.702148 0.986679
vt 0.764648 0.824097
vt 0.564453 0.785522
vt 0.556641 0.982361
vt 0.375488 0.013672
vt 0.348633 0.132324
vt 0.450195 0.132324
vt 0.505859 0.013672
vt 0.626953 0.547363
vt 0.568359 0.693848
vt 0.252686 0.013672
vt 0.307373 0.121582
vt 0.187622 0.132324
vt 0.186279 0.013672
vt 0.090210 0.084961
vt 0.414551 0.256836
vt 0.342041 0.235352
vt 0.562012 0.218750
vt 0.539062 0.102539
vt 0.174316 0.243164
vt 0.279541 0.229492
vt 0.074280 0.142578
vt 0.093018 0.228516
vt 0.294922 0.642334
vt 0.332031 0.790283
vt 0.382568 0.711426
vt 0.312256 0.542969
vt 0.224854 0.782471
vt 0.273438 0.542969
vt 0.189453 0.641602
s 1
usemtl phong3
f 1/1/1 2/2/1 3/3/1
f 2/2/2 3/3/2 4/4/2
f 4/4/3 5/5/3 6/6/3
f 4/4/4 6/6/4 3/3/4
f 7/7/5 8/8/5 4/4/5
f 7/7/6 4/4/6 2/2/6
f 9/9/7 10/10/7 11/11/7
f 9/9/8 11/11/8 12/12/8
f 13/13/9 1/1/9 2/2/9
f 2/2/10 14/14/10 13/13/10
f 14/14/11 2/2/11 7/7/11
f 15/15/12 16/16/12 17/17/12
f 17/17/13 18/18/13 15/15/13
f 19/19/14 18/18/14 17/17/14
f 20/20/15 21/21/15 10/10/15
f 10/10/16 11/11/16 20/20/16
f 22/22/17 20/20/17 11/11/17
f 11/11/18 23/23/18 22/22/18
f 11/11/19 12/12/19 23/23/19
f 24/24/20 25/25/20 16/16/20
f 17/17/21 24/24/21 16/16/21
f 24/24/22 17/17/22 26/26/22
f 26/26/23 27/27/23 24/24/23
f 17/17/24 19/19/24 26/26/24
f 28/26/25 29/27/25 30/24/25
f 30/24/26 31/25/26 32/16/26
f 30/24/27 33/17/27 28/26/27
f 33/17/28 30/24/28 32/16/28
f 33/17/29 34/19/29 28/26/29
f 35/15/30 33/17/30 32/16/30
f 34/19/31 33/17/31 36/18/31
f 33/17/32 35/15/32 36/18/32
f 37/28/33 38/29/33 39/30/33
f 37/28/34 39/30/34 40/31/34
f 41/32/35 38/29/35 37/28/35
f 42/33/36 37/28/36 40/31/36
f 43/34/37 41/32/37 37/28/37
f 42/33/38 43/34/38 37/28/38
