# Blender 3.6.1
# www.blender.org
mtllib Grass01.mtl
o tall_bush_1
v -0.096480 0.870546 -0.320954
v -0.124923 0.986912 -0.503921
v -0.335910 0.658701 -0.442761
v -0.024247 0.459262 0.007214
v 0.160141 0.912407 0.119060
v 0.168532 0.462251 0.061418
v -0.079052 0.919020 0.026369
v 0.377694 0.534283 -0.253787
v 0.395337 0.251106 -0.008487
v 0.536183 0.407929 -0.235733
v -0.256212 -0.015150 0.081814
v -0.377582 0.334103 0.400731
v -0.158165 0.247035 0.189613
v -0.211310 0.505858 0.429064
v -0.377750 0.396682 0.569389
v 0.112944 0.499943 0.456549
v 0.440566 0.253441 0.357950
v 0.344208 0.464298 0.531612
v -0.275027 0.648052 -0.255815
v -0.131891 0.323608 -0.377965
v -0.320102 0.563141 -0.435171
v -0.238301 0.240980 0.117381
v -0.249216 0.232962 0.407640
v -0.124601 0.152330 0.305580
v 0.284141 0.348766 -0.195103
v 0.207064 0.567486 -0.215488
v 0.066066 0.575849 -0.051871
v -0.158262 0.514874 0.084976
v -0.100786 0.273032 0.220423
v 0.360342 0.167593 0.059263
v 0.608799 0.128650 -0.220080
v 0.432131 0.104254 -0.194786
v 0.714740 0.307475 0.056393
v 0.579628 0.334766 0.288273
v 0.442909 0.089679 0.325381
v 0.743220 0.308249 -0.157871
v 0.151597 0.231288 0.141004
v 0.305896 -0.035089 0.014607
v -0.137928 0.004628 -0.011034
v -0.242340 0.465354 0.011380
v -0.426362 1.005127 0.050882
v -0.156805 1.285657 0.153811
v 0.199807 -0.007827 0.130507
v 0.237281 -0.007554 -0.027332
v 0.104887 -0.008960 0.064785
v 0.241882 0.022824 -0.060093
v 0.353430 0.465354 -0.084038
v 0.419782 1.023881 -0.098282
v 0.287732 1.329319 0.048237
v 0.034182 1.416956 0.204601
v -0.078147 0.009161 -0.159337
v -0.050281 0.426592 -0.130910
v 0.036253 0.002811 -0.072895
v 0.152532 0.415334 0.022338
v 0.057952 0.802665 -0.082977
v -0.062273 0.745580 -0.245179
v -0.272207 0.455279 0.365342
v -0.405920 0.457623 0.196429
v -0.394891 0.455297 -0.073091
v -0.381956 0.182028 -0.145850
v -0.124163 -0.006446 -0.078011
v -0.080797 -0.005586 0.078310
v -0.178016 -0.000425 0.036858
v -0.205500 0.365961 0.035388
v -0.112392 0.007899 -0.067945
v -0.089158 0.380718 -0.150410
v -0.237391 0.683388 -0.060318
v -0.356727 0.616121 0.087055
v -0.165833 0.738048 -0.253757
v -0.401805 1.063982 -0.087358
v -0.328081 1.074517 -0.205531
v 0.140782 1.251975 -0.233873
v 0.263434 1.240716 -0.168349
v 0.297054 0.830655 -0.001873
v 0.196811 -0.008833 0.133624
v 0.116756 0.014807 0.047912
v 0.214670 0.339552 0.197804
v 0.072745 0.381461 0.045850
v 0.140399 0.649840 0.237718
v 0.242126 0.561155 0.377418
v -0.017144 0.726891 0.129679
v 0.100746 1.002747 0.424141
v 0.010490 1.030479 0.327870
v 0.395481 0.557340 -0.111273
v 0.530706 0.375434 -0.030199
v 0.611489 0.459678 -0.167088
v 0.238284 0.272037 0.033787
v 0.277247 -0.006571 0.137873
v 0.125715 0.570953 -0.292856
v -0.055605 0.265148 -0.076418
v -0.246034 -0.007746 -0.079047
v -0.203043 0.329875 -0.400659
v -0.039035 0.556881 -0.474645
v -0.299540 0.360490 -0.308000
v 0.233451 0.606647 -0.293274
v 0.250905 1.035423 -0.473846
v -0.048142 0.400406 -0.162794
v -0.118572 -0.019215 -0.166248
v 0.216978 0.368430 -0.217180
v 0.041020 -0.018656 -0.150671
v 0.171571 0.261158 -0.178513
v 0.017841 0.162393 -0.364008
v 0.183465 0.376827 -0.542075
v -0.041753 -0.030380 -0.176104
v 0.203632 -0.021497 0.081950
v -0.254956 0.323608 -0.125110
v -0.435946 0.242626 0.043651
v -0.564295 0.529197 -0.037126
v -0.307933 -0.000836 0.024680
v -0.099577 -0.000836 -0.264236
v -0.052541 -0.009442 0.064018
v -0.034560 0.208366 -0.053693
v 0.060118 -0.002237 -0.052489
v 0.191991 0.194175 -0.202621
vn -0.7088 0.5402 0.4537
vn 0.2666 0.1273 -0.9554
vn -0.3621 -0.0818 0.9285
vn 0.4105 0.6115 0.6764
vn -0.5002 0.4826 -0.7189
vn -0.6725 0.6936 -0.2580
vn -0.3183 -0.6851 0.6552
vn 0.7584 0.4945 -0.4247
vn 0.5679 0.8219 0.0441
vn 0.7273 0.3132 0.6107
vn 0.3375 0.5198 0.7848
vn -0.1709 0.9436 -0.2836
vn 0.7860 -0.3627 0.5007
vn -0.3400 0.8688 0.3599
vn 0.7793 -0.6184 0.1014
vn 0.3366 -0.8442 0.4171
vn 0.3750 0.7280 -0.5739
vn 0.4585 0.5836 -0.6703
vn 0.0965 -0.3805 0.9197
vn 0.1203 -0.4157 0.9015
vn 0.0638 -0.7560 0.6515
vn -0.0739 -0.6854 0.7244
vn 0.4528 -0.5536 0.6989
vn -0.0178 0.0446 -0.9988
vn -0.0180 0.0395 -0.9991
vn -0.0571 0.0535 -0.9969
vn 0.0155 0.3312 -0.9434
vn 0.3443 0.3726 -0.8618
vn 0.5948 -0.7028 -0.3903
vn 0.7610 -0.6235 0.1796
vn 0.6749 -0.6484 0.3524
vn -0.2960 0.0357 0.9545
vn -0.2710 0.0435 0.9616
vn 0.6821 -0.0869 0.7261
vn 0.6155 -0.1129 0.7800
vn 0.6168 -0.0887 0.7821
vn 0.6555 -0.0587 0.7529
vn 0.6587 -0.0744 0.7487
vn 0.5212 -0.0146 0.8533
vn -0.1240 -0.1959 0.9728
vn 0.6033 0.0140 -0.7974
vn 0.5989 -0.0707 -0.7977
vn 0.8193 -0.1658 -0.5489
vn -0.7833 0.0371 0.6206
vn -0.7982 -0.6006 -0.0466
vn -0.9985 -0.0365 -0.0405
vn -0.6046 -0.6405 0.4734
vn -0.5980 -0.6482 0.4715
vn -0.8043 -0.5496 0.2261
vn -0.8040 -0.5496 0.2269
vn -0.8434 -0.0654 -0.5333
vn -0.8138 -0.2412 -0.5287
vn -0.6829 -0.2729 -0.6776
vn -0.8631 -0.3022 -0.4047
vn -0.6539 -0.3308 -0.6805
vn -0.8431 -0.3478 -0.4102
vn -0.7729 -0.3705 -0.5152
vn -0.8122 0.3147 0.4912
vn -0.4143 0.3575 0.8370
vn -0.3376 0.3302 0.8815
vn -0.3344 0.1704 0.9269
vn 0.7398 0.0850 -0.6675
vn 0.7406 0.2571 -0.6208
vn 0.8517 0.2622 -0.4537
vn 0.6388 0.3344 -0.6930
vn 0.8511 0.3168 -0.4187
vn 0.6421 0.3772 -0.6674
vn 0.7264 0.3831 -0.5706
vn 0.4469 0.6197 0.6451
vn 0.0436 0.4336 0.9001
vn 0.0769 0.3583 0.9304
vn -0.4318 0.5864 0.6854
vn -0.3423 0.2864 0.8949
vn -0.2775 0.6592 0.6989
vn -0.3712 0.2504 0.8941
vn -0.7391 0.5115 0.4382
vn -0.6226 0.6632 0.4155
vn -0.6116 0.6072 0.5073
vn 0.6119 -0.2625 -0.7461
vn -0.2210 -0.3709 -0.9020
vn 0.5139 -0.2256 -0.8277
vn -0.1867 -0.3304 -0.9252
vn 0.5079 -0.0782 -0.8579
vn -0.2253 -0.2823 -0.9325
vn 0.0972 -0.0081 -0.9952
vn -0.2088 -0.0726 -0.9753
vn 0.6885 -0.6973 -0.1993
vn 0.7626 -0.6233 -0.1733
vn 0.7599 -0.5588 -0.3322
vn 0.4877 -0.5540 -0.6747
vn 0.6451 -0.4769 -0.5970
vn 0.4840 -0.5627 -0.6702
vn -0.5019 -0.4355 -0.7473
vn -0.4665 -0.3552 -0.8101
vn -0.5963 -0.2542 -0.7615
vn -0.8759 -0.2259 -0.4263
vn -0.8035 -0.1363 -0.5795
vn -0.8737 -0.2361 -0.4252
vn -0.9734 -0.0415 -0.2254
vn -0.9246 0.2546 -0.2834
vn -0.6746 -0.3071 -0.6713
vn -0.4486 0.1272 -0.8846
vn -0.5429 -0.2486 -0.8022
vn -0.5021 0.3380 -0.7960
vt 0.682617 0.875122
vt 0.702148 0.986679
vt 0.764648 0.824097
vt 0.769043 0.185547
vt 0.852051 0.359863
vt 0.857422 0.185547
vt 0.738281 0.359863
vt 0.414551 0.256836
vt 0.348633 0.132324
vt 0.342041 0.235352
vt 0.274170 0.273926
vt 0.169678 0.438477
vt 0.313965 0.382324
vt 0.303955 0.520264
vt 0.208008 0.502686
vt 0.438232 0.520264
vt 0.572754 0.408203
vt 0.563965 0.498535
vt 0.187622 0.132324
vt 0.074280 0.142578
vt 0.090210 0.084961
vt 0.093018 0.228516
vt 0.174316 0.243164
vt 0.279541 0.229492
vt 0.307373 0.121582
vt 0.439697 0.382324
vt 0.495850 0.273926
vt 0.719727 0.017578
vt 0.673828 0.185547
vt 0.587402 0.405273
vt 0.728027 0.482422
vt 0.252686 0.013672
vt 0.186279 0.013672
vt 0.829102 0.012695
vt 0.909180 0.024414
vt 0.958008 0.185547
vt 0.986816 0.389160
vt 0.933105 0.502441
vt 0.821777 0.533936
vt 0.039368 0.270996
vt 0.046722 0.427246
vt 0.091919 0.270996
vt 0.139893 0.427246
vt 0.083069 0.561768
vt -0.001195 0.541260
vt 0.167358 0.582520
vt 0.064392 0.738525
vt 0.123596 0.739258
vt 0.750000 0.693848
vt 0.564453 0.785522
vt 0.556641 0.982361
vt 0.659180 0.693848
vt 0.685547 0.547363
vt 0.568359 0.693848
vt 0.626953 0.547363
vt 0.450195 0.132324
vt 0.539062 0.102539
vt 0.562012 0.218750
vt 0.505859 0.013672
vt 0.375488 0.013672
s 1
usemtl phong3
f 1/1/1 2/2/1 3/3/1
f 4/4/2 5/5/2 6/6/2
f 5/5/3 7/7/3 4/4/3
f 8/8/4 9/9/4 10/10/4
f 11/11/5 12/12/5 13/13/5
f 14/14/6 12/12/6 15/15/6
f 16/16/7 17/17/7 18/18/7
f 19/8/8 20/9/8 21/10/8
f 22/19/9 23/20/9 24/21/9
f 25/20/10 26/22/10 27/23/10
f 27/23/11 28/24/11 29/25/11
f 30/19/12 31/20/12 32/21/12
f 33/23/13 34/24/13 35/25/13
f 30/19/14 35/25/14 33/23/14
f 31/20/15 36/22/15 33/23/15
f 33/23/16 30/19/16 31/20/16
f 37/26/17 16/16/17 17/17/17
f 38/27/18 37/26/18 17/17/18
f 11/11/19 38/27/19 37/26/19
f 11/11/20 37/26/20 13/13/20
f 13/13/21 37/26/21 16/16/21
f 13/13/22 16/16/22 14/14/22
f 12/12/23 13/13/23 14/14/23
f 39/28/24 40/29/24 4/4/24
f 7/7/25 4/4/25 40/29/25
f 40/29/26 41/30/26 7/7/26
f 41/30/27 42/31/27 7/7/27
f 7/7/28 42/31/28 5/5/28
f 43/32/29 30/19/29 35/25/29
f 30/19/30 43/32/30 44/33/30
f 32/21/31 30/19/31 44/33/31
f 39/28/32 45/34/32 4/4/32
f 4/4/33 45/34/33 6/6/33
f 45/34/34 46/35/34 6/6/34
f 6/6/35 46/35/35 47/36/35
f 6/6/36 47/36/36 5/5/36
f 5/5/37 47/36/37 48/37/37
f 49/38/38 5/5/38 48/37/38
f 5/5/39 49/38/39 50/39/39
f 42/31/40 5/5/40 50/39/40
f 51/40/41 52/41/41 53/42/41
f 52/41/41 54/43/41 53/42/41
f 52/41/42 55/44/42 54/43/42
f 52/41/43 56/45/43 55/44/43
f 23/20/44 57/22/44 58/23/44
f 58/23/45 22/19/45 23/20/45
f 58/23/46 59/24/46 60/25/46
f 22/19/47 58/23/47 60/25/47
f 61/32/48 22/19/48 60/25/48
f 22/19/49 61/32/49 62/33/49
f 24/21/50 22/19/50 62/33/50
f 63/40/51 64/41/51 65/42/51
f 64/41/51 66/43/51 65/42/51
f 64/41/52 67/44/52 66/43/52
f 64/41/53 68/45/53 67/44/53
f 67/44/54 69/46/54 66/43/54
f 68/45/55 70/47/55 67/44/55
f 67/44/56 71/48/56 69/46/56
f 70/47/57 71/48/57 67/44/57
f 56/45/58 55/44/58 72/47/58
f 72/47/59 55/44/59 73/48/59
f 55/44/60 74/46/60 73/48/60
f 55/44/61 54/43/61 74/46/61
f 75/40/62 76/42/62 77/41/62
f 77/41/62 76/42/62 78/43/62
f 77/41/63 78/43/63 79/44/63
f 77/41/64 79/44/64 80/45/64
f 79/44/65 78/43/65 81/46/65
f 80/45/66 79/44/66 82/47/66
f 79/44/67 81/46/67 83/48/67
f 82/47/68 79/44/68 83/48/68
f 84/14/69 85/12/69 86/15/69
f 85/12/70 84/14/70 87/13/70
f 88/11/71 85/12/71 87/13/71
f 87/13/72 84/14/72 89/16/72
f 88/11/73 87/13/73 90/26/73
f 87/13/74 89/16/74 90/26/74
f 88/11/75 90/26/75 91/27/75
f 91/27/76 90/26/76 92/17/76
f 90/26/77 89/16/77 92/17/77
f 89/16/78 93/18/78 92/17/78
f 1/1/79 94/49/79 3/3/79
f 95/50/80 1/1/80 96/51/80
f 97/52/81 94/49/81 1/1/81
f 95/50/82 97/52/82 1/1/82
f 98/53/83 94/49/83 97/52/83
f 99/54/84 97/52/84 95/50/84
f 100/55/85 98/53/85 97/52/85
f 97/52/86 99/54/86 100/55/86
f 101/56/87 102/57/87 103/58/87
f 103/58/88 8/8/88 101/56/88
f 101/56/89 104/59/89 102/57/89
f 9/9/90 101/56/90 8/8/90
f 105/60/91 104/59/91 101/56/91
f 105/60/92 101/56/92 9/9/92
f 106/56/93 107/57/93 108/58/93
f 108/58/94 19/8/94 106/56/94
f 106/56/95 109/59/95 107/57/95
f 20/9/96 106/56/96 19/8/96
f 110/60/97 109/59/97 106/56/97
f 110/60/98 106/56/98 20/9/98
f 111/32/99 29/25/99 112/19/99
f 112/19/100 29/25/100 27/23/100
f 112/19/101 113/33/101 111/32/101
f 27/23/102 25/20/102 112/19/102
f 114/21/103 113/33/103 112/19/103
f 112/19/104 25/20/104 114/21/104
